/* XPM */
static char *mitsubishi_logo[]={
"43 39 18 1",
"d c #ee333e",
"g c #ef404a",
"p c #efefef",
"e c #f04d56",
"a c #f15962",
"l c #f2666e",
"n c #f3737b",
"h c #f48087",
"i c #f58d93",
"k c #f6999e",
"c c #f8a5aa",
"o c #f9b2b6",
"m c #fabfc2",
"b c #fbcccf",
"j c #fcd9db",
"# c #fde5e7",
"f c #fef2f3",
". c #ffffff",
"...........................................",
".....................#.....................",
".....................ab....................",
"....................cde....................",
"...................fgddc...................",
"...................hdddgf..................",
"..................bdddddi..................",
"..................eddddddj.................",
".................kdddddddl.................",
"................#gddddddddm................",
"................nddddddddde................",
"...............bdddddddddddk...............",
"...............edddddddddddgf..............",
"..............fgdddddddddddg#..............",
"...............odddddddddddc..............p",
"................lddddddddda................",
"................bdddddddddb................",
".................hdddddddi.................",
".................fgdddddgf.................",
"..................kdddddo..................",
"...................edddl...................",
"...................bddd#...................",
"....................ldk....................",
"........#...........#ef..........ff........",
".......feddddddddddddnddddddddddddn........",
".......kddddddddddddlfgddddddddddddb.......",
"......fgddddddddddddb.kddddddddddddl.......",
"......kddddddddddddn..feddddddddddddb......",
".....#ddddddddddddd#...odddddddddddde......",
".....hddddddddddddh.....eddddddddddddo.....",
"....jddddddddddddg#.....bddddddddddddef....",
"....lddddddddddddk.......lddddddddddddk....",
"...bddddddddddddgf.......bddddddddddddgf...",
"...lddddddddddddc.........nddddddddddddi...",
"..odddddddddddde..........#ddddddddddddd#..",
"..okkkkkkkkkkkkb...........okkkkkkkkkkkkb..",
"...........................................",
"...........................................",
"..........................................."};
